<?xml version="1.0" encoding="iso-8859-1"?>
<!-- Generator: Adobe Illustrator 18.0.0, SVG Export Plug-In . SVG Version: 6.00 Build 0)  -->
<!DOCTYPE svg PUBLIC "-//W3C//DTD SVG 1.1//EN" "http://www.w3.org/Graphics/SVG/1.1/DTD/svg11.dtd">
<svg version="1.1" id="Capa_1" xmlns="http://www.w3.org/2000/svg" xmlns:xlink="http://www.w3.org/1999/xlink" x="0px" y="0px"
	 viewBox="0 0 418.955 418.955" style="enable-background:new 0 0 418.955 418.955;" xml:space="preserve">
<g>
	<path d="M235.472,246.322h-51.993v17.766c-9.927,21.605-16.313,53.424-16.313,82.402c0,49.914,18.942,72.465,42.311,72.465
		s42.312-22.551,42.312-72.465c0-28.979-6.387-60.797-16.316-82.402V246.322z"/>
	<path d="M312.712,82.26V8.955c0-4.946-4.009-8.955-8.954-8.955H115.196c-4.945,0-8.955,4.009-8.955,8.955V82.26H96.235v99.515
		c0,28.62,23.204,51.826,51.826,51.826h122.83c28.624,0,51.828-23.206,51.828-51.826V82.26H312.712z M282.577,124.941H136.378
		v-21.579h146.199V124.941z M294.802,82.26H124.151V17.909h36.529l4.324,23.816c0.233,1.283,1.351,2.215,2.654,2.215
		c1.304,0,2.42-0.933,2.654-2.216l4.321-23.816h13.27l4.321,23.816c0.233,1.283,1.351,2.216,2.654,2.216s2.421-0.933,2.654-2.215
		l4.323-23.816h55.909l5.466,32.162c0.221,1.296,1.344,2.245,2.659,2.245c1.315,0,2.439-0.949,2.659-2.245l5.468-32.162h20.783
		V82.26z"/>
</g>
<g>
</g>
<g>
</g>
<g>
</g>
<g>
</g>
<g>
</g>
<g>
</g>
<g>
</g>
<g>
</g>
<g>
</g>
<g>
</g>
<g>
</g>
<g>
</g>
<g>
</g>
<g>
</g>
<g>
</g>
</svg>
